<svg version="1.1" id="Layer_1" xmlns="http://www.w3.org/2000/svg" xmlns:xlink="http://www.w3.org/1999/xlink" x="0px" y="0px"
	 width="100%" viewBox="0 0 1024 576" enable-background="new 0 0 1024 576" xml:space="preserve">
<path fill="#000000" opacity="1.000000" stroke="none" 
	d="
M423.468658,577.000000 
	C420.649261,574.863281 417.593292,574.307190 414.698273,573.912720 
	C406.355042,572.776062 403.489227,566.237610 399.198303,558.955811 
	C408.352692,560.748230 416.533173,559.468079 424.632141,561.029236 
	C435.560791,563.135864 446.761810,562.061584 457.768036,563.684753 
	C462.967468,564.451599 467.341156,561.373657 471.593323,558.697693 
	C472.717407,557.990234 473.755280,557.116211 474.941803,556.545471 
	C476.259979,555.911377 477.578491,556.125122 478.462738,557.439209 
	C479.271606,558.641235 478.749847,559.788025 477.855347,560.568115 
	C476.358368,561.873535 474.844025,563.359924 473.059143,564.099976 
	C465.062622,567.415466 458.277863,572.908691 450.214172,576.729736 
	C441.312439,577.000000 432.624878,577.000000 423.468658,577.000000 
z"/>
<path fill="#000000" opacity="1.000000" stroke="none" 
	d="
M440.704102,536.861938 
	C427.327240,542.712158 413.454468,545.627380 399.761444,549.129883 
	C397.128815,549.803223 394.861389,549.066162 393.434479,546.412231 
	C391.839111,543.445007 389.255127,543.196960 386.140106,543.646790 
	C378.683777,544.723633 372.406464,547.249268 367.163818,553.274109 
	C359.326569,562.280640 348.420319,565.749512 336.818970,566.618713 
	C319.866638,567.888733 302.792572,569.006104 286.246826,563.942200 
	C272.979675,559.881653 263.595581,550.860413 257.713715,538.349487 
	C255.350052,533.321838 256.833710,530.483704 261.965302,527.973572 
	C265.637115,526.177490 270.789337,526.546692 272.842651,522.536987 
	C274.973389,518.376038 270.645905,514.840088 270.160248,510.805481 
	C269.373260,504.267426 271.077393,498.159424 273.093079,492.047913 
	C281.158112,495.714600 285.114380,501.970673 287.978455,509.437836 
	C290.972900,517.244812 293.304871,521.399475 305.127991,520.876343 
	C325.942505,519.955200 346.777039,520.222534 367.213654,525.337646 
	C368.278717,525.604248 369.587341,525.540710 370.623596,525.177368 
	C378.642883,522.365356 386.747223,519.848511 394.981140,517.744080 
	C395.953339,517.495605 396.883057,517.078003 397.478699,514.870056 
	C388.666687,511.556091 387.645874,502.432220 383.635162,495.097595 
	C380.295563,488.990173 376.297455,483.212708 373.277222,476.889862 
	C370.760681,471.621521 367.890320,470.155518 362.337524,471.296967 
	C356.852692,472.424438 356.469208,472.265900 356.747955,466.610565 
	C357.420654,452.962463 357.989227,439.317596 357.668488,425.649170 
	C357.457947,416.677826 357.831329,407.669647 355.761749,398.823883 
	C355.421997,397.371735 355.541595,395.785156 353.714203,395.006500 
	C351.397614,395.176666 350.761749,397.320282 349.671539,398.868866 
	C346.318909,403.631012 343.626801,408.870911 339.603577,413.145233 
	C333.836182,419.272522 328.242676,418.144348 326.025848,410.113434 
	C323.320465,400.312622 324.255005,390.209167 325.199677,380.307129 
	C327.196259,359.379028 331.391907,338.850494 338.239075,318.917999 
	C339.085999,316.452545 339.261597,313.814667 337.833679,311.655212 
	C335.848938,308.653595 336.542999,305.932098 337.979675,303.202057 
	C350.322083,279.748352 359.836548,254.992752 371.224518,231.100830 
	C373.622101,226.070740 378.182953,222.213791 379.146973,216.369644 
	C379.286163,215.526077 380.218048,214.615601 381.018982,214.108841 
	C391.370361,207.559540 390.498749,196.282791 392.617401,186.344696 
	C393.332733,182.989349 390.760651,183.295319 388.377655,183.700699 
	C381.515137,184.868225 374.711060,186.951218 367.623474,185.385941 
	C366.556458,185.150314 365.201019,185.404739 364.843536,183.728271 
	C365.827759,182.116043 367.485931,182.699509 368.806976,182.811813 
	C375.910889,183.415802 382.699280,181.819763 389.538239,180.272629 
	C392.761322,179.543503 394.224945,177.971893 394.818848,174.675308 
	C397.413696,160.271667 399.772034,145.799698 404.602753,131.903915 
	C417.026917,96.165337 441.660583,73.477043 479.103058,68.347168 
	C522.045105,62.463814 561.184631,81.656006 579.692810,122.659126 
	C588.128357,141.347244 592.329285,161.180115 596.242065,181.120865 
	C596.466431,182.264282 596.901611,183.380890 597.005188,184.530975 
	C597.503540,190.066711 600.344666,192.093964 605.973389,191.947998 
	C610.562500,191.829010 615.206177,193.032745 619.792786,193.837112 
	C623.718567,194.525604 626.244995,193.093643 627.604187,189.407410 
	C634.286621,171.284958 640.936401,153.150299 647.701294,135.058640 
	C648.726135,132.317719 648.422791,129.878754 647.261841,127.374542 
	C642.916992,118.002319 642.406555,108.481537 646.810669,99.058807 
	C649.312561,93.705963 650.071777,87.620819 653.523804,82.264877 
	C658.199219,85.167961 657.028809,91.251915 660.953674,93.986221 
	C667.849304,88.007263 668.968872,88.323296 670.886475,96.830460 
	C675.360718,98.147644 678.674438,93.463493 682.850525,94.066612 
	C683.762329,94.830040 683.987183,95.622543 683.663330,96.463638 
	C680.558472,104.528221 678.198547,112.874748 674.102966,120.565186 
	C671.128967,126.149422 665.849121,128.695557 660.625671,131.189713 
	C656.998962,132.921432 655.043945,135.484711 653.731689,139.150192 
	C647.671082,156.078613 641.448120,172.949036 635.250061,189.828018 
	C632.815186,196.458939 633.826599,198.402481 640.177429,200.774826 
	C643.804932,202.129883 645.488037,200.248901 647.073181,197.741165 
	C654.193481,186.476273 661.280945,175.190582 668.367310,163.904190 
	C670.846375,159.955704 673.112854,155.860107 675.795776,152.057022 
	C678.485168,148.244720 679.252808,144.170029 678.373291,139.749435 
	C676.742676,131.553696 678.747192,124.329849 683.502441,117.564285 
	C686.075623,113.903275 688.061523,109.830597 690.331665,105.954948 
	C691.150940,104.556297 691.643250,102.812813 693.806641,102.538971 
	C696.091248,104.184151 695.662109,106.940964 696.184326,109.248085 
	C696.771484,111.842049 697.486084,113.121620 700.548584,111.934654 
	C704.431213,110.429802 706.195068,111.784248 705.632385,115.982323 
	C705.117432,119.824181 707.302429,119.718086 709.785339,119.632721 
	C713.194641,119.515480 716.501282,117.654221 719.890076,118.806580 
	C720.968079,120.763359 719.662048,121.796463 718.801147,122.978882 
	C713.744080,129.924652 708.687012,136.870407 703.647095,143.828568 
	C702.036072,146.052811 699.512451,146.766357 697.136230,147.187531 
	C687.700928,148.859940 681.786194,154.193085 677.195862,162.655869 
	C670.297302,175.374283 662.188782,187.445114 654.398315,199.666092 
	C651.823792,203.704941 652.003906,206.489456 656.271851,209.152527 
	C658.915405,210.802002 661.169312,213.143829 663.394775,215.377502 
	C665.878296,217.870300 666.589844,221.047775 664.792664,224.096786 
	C659.391724,233.259750 657.284241,243.617554 653.881775,253.491638 
	C650.035400,264.654053 646.733704,276.002991 643.073730,287.231262 
	C640.425598,295.355194 643.794434,308.372650 650.261536,313.972046 
	C652.185364,315.637695 653.463989,317.761230 652.839844,320.109802 
	C651.083252,326.719971 653.988586,332.283173 656.655640,337.755981 
	C658.275391,341.079712 658.479675,343.920624 657.141968,347.240570 
	C656.222900,349.521545 655.289978,351.891418 655.519592,354.474548 
	C656.369507,364.032318 658.601868,365.737335 668.205139,366.891754 
	C675.193176,367.731781 682.173096,366.727051 689.111145,367.719421 
	C691.118469,368.006531 693.550781,367.945587 694.649597,366.163544 
	C697.797424,361.058136 703.173035,360.159851 708.099792,358.273895 
	C712.607056,356.548492 717.032471,354.609985 721.502319,352.785767 
	C723.186157,352.098572 724.883301,351.218079 726.693054,352.562653 
	C727.513062,354.583313 726.095337,356.030945 725.398804,357.658203 
	C724.684204,359.327698 723.523071,361.107452 725.295410,362.687531 
	C727.000427,364.207611 728.955444,363.831360 730.889587,362.853149 
	C735.551880,360.495178 739.476379,357.151001 743.355103,353.729553 
	C745.353638,351.966705 747.299988,350.119019 749.452759,348.562622 
	C752.837585,346.115601 754.949951,346.900208 755.113892,350.889709 
	C755.230408,353.724701 756.041870,355.572296 758.524597,356.955292 
	C759.916626,357.730713 761.525208,358.885101 761.149536,360.831696 
	C760.776062,362.767487 758.832764,362.966003 757.297791,363.554382 
	C754.036926,364.804321 750.717834,365.939240 747.563293,367.420715 
	C743.406921,369.372589 741.903137,372.872589 742.701538,377.328125 
	C743.958862,384.345337 743.658630,391.290314 741.466431,398.055756 
	C740.474854,401.116028 740.719299,403.816528 741.916870,406.732666 
	C743.842651,411.422150 744.684814,416.341187 743.613770,421.398163 
	C743.236145,423.181030 742.682434,425.356354 740.359863,425.161255 
	C737.927612,424.957001 738.054626,422.737885 738.021179,420.882629 
	C737.979248,418.551331 737.957947,416.219055 737.869019,413.889465 
	C737.804504,412.197601 737.649475,410.117767 736.345947,409.255707 
	C729.755432,404.897278 731.894836,399.061340 733.081299,393.186615 
	C733.665710,390.292969 735.756287,386.296112 731.954834,384.721497 
	C728.192017,383.162933 726.165344,386.949585 724.340820,389.715607 
	C718.916687,397.938629 716.721741,407.387177 714.233704,416.718018 
	C712.646851,422.669159 710.828552,428.571838 709.548889,434.588715 
	C707.330505,445.019348 699.119934,451.450928 693.224731,459.348572 
	C683.444946,472.450348 673.965820,485.650787 666.591858,500.325958 
	C661.529419,510.400818 668.221436,530.667175 677.673279,535.205872 
	C679.757690,536.206787 681.623474,537.680969 683.536865,539.013428 
	C684.642334,539.783325 685.728027,540.714722 685.303772,542.289734 
	C684.877319,543.872986 683.488770,544.059814 682.129883,544.182312 
	C678.926941,544.471008 675.761353,544.021179 672.750244,543.075500 
	C669.118530,541.934937 665.678345,540.301514 661.918701,539.393372 
	C658.359436,538.533691 656.665344,535.277954 655.930664,531.959106 
	C654.618652,526.031921 651.159180,521.047058 649.150757,515.419800 
	C647.089233,509.643646 641.606812,507.187408 636.546875,504.651550 
	C628.565796,500.651733 619.801758,499.224884 611.179504,497.383667 
	C607.935242,496.690948 605.319824,497.669678 603.326416,500.423065 
	C598.424805,507.193542 591.821167,512.392761 586.328369,518.633301 
	C584.353333,520.877197 584.384644,522.102905 586.670105,523.783752 
	C591.365479,527.236877 596.010071,530.761780 600.608459,534.343323 
	C604.472595,537.353027 607.448120,541.141663 609.782593,545.435669 
	C610.599609,546.938538 611.269226,548.491028 610.094604,550.111755 
	C608.940002,551.704773 607.209167,551.745789 605.561096,551.401917 
	C601.816895,550.620789 598.064514,549.818970 594.395813,548.749756 
	C589.380432,547.288086 585.864685,548.401184 583.212097,553.276855 
	C579.739990,559.658691 577.584717,560.071045 571.121338,556.874756 
	C570.375061,556.505737 569.600159,556.162231 568.926575,555.683167 
	C559.487122,548.969177 549.586853,547.499084 538.847412,552.544006 
	C536.249390,553.764404 533.030273,554.993408 530.538269,552.070312 
	C528.269470,549.409058 529.257446,546.471680 530.234924,543.553955 
	C531.980835,538.342590 535.477356,534.338806 539.014465,530.330627 
	C543.000916,525.813293 542.664978,524.578491 536.977234,522.303223 
	C525.262024,517.616821 512.877625,516.101013 500.510468,514.301025 
	C486.155701,512.211792 471.961548,513.684326 457.754669,515.367310 
	C453.394196,515.883850 449.744904,518.498535 446.031158,520.640137 
	C444.071472,521.770264 444.097229,524.079834 444.648621,526.083740 
	C445.858490,530.480957 444.611176,533.945923 440.704102,536.861938 
M398.124359,234.408066 
	C409.239594,251.242706 423.179169,265.201904 439.172119,277.582153 
	C469.370880,300.959137 501.027466,321.218506 537.640442,333.412964 
	C554.010193,338.865173 571.159119,340.159363 587.461304,345.352478 
	C587.618713,345.402649 587.785095,345.435822 587.949585,345.450958 
	C596.997620,346.284485 601.157898,343.353912 599.477600,336.728485 
	C594.822327,318.373077 593.673950,299.274170 586.953857,281.328522 
	C581.350830,266.365875 576.876526,250.943558 568.049683,237.422867 
	C554.292419,216.349930 533.900513,208.774307 510.170959,215.720200 
	C502.828583,217.869370 495.481049,220.030289 488.241241,222.495193 
	C463.487244,230.923035 440.118530,229.418198 418.597260,213.335144 
	C415.796661,211.242218 412.640991,209.679565 409.253571,208.661667 
	C401.534271,206.342117 396.240875,208.121017 391.273865,214.489639 
	C389.415710,216.872131 388.929291,219.168045 390.531952,221.816376 
	C392.945129,225.804062 395.322723,229.813248 398.124359,234.408066 
M401.088501,359.427612 
	C404.754211,365.650787 409.415833,371.101593 414.616913,376.036713 
	C421.069611,382.159485 433.258820,384.151031 440.090820,380.361847 
	C434.878143,373.326294 427.824890,367.634247 424.514008,359.207092 
	C432.254578,364.687500 438.962402,371.513824 448.802490,375.538910 
	C445.952240,368.344879 441.281158,365.035553 435.246582,363.267029 
	C432.141815,362.357086 429.196014,360.586670 430.127594,357.052490 
	C431.965576,350.079620 430.268707,344.072754 426.972046,338.018250 
	C424.269745,333.055450 422.084625,327.806915 419.767914,322.641235 
	C419.214478,321.407288 417.890198,320.162292 419.179840,318.506500 
	C421.442261,318.935394 422.210754,320.941803 423.378815,322.462128 
	C427.032166,327.217224 430.623474,332.019958 434.257721,336.789795 
	C435.051178,337.831207 435.901947,339.699463 437.121643,339.268707 
	C443.684418,336.951080 445.875702,342.919556 449.267517,345.867310 
	C452.653931,348.810364 455.766418,352.697632 454.806641,357.988159 
	C454.483765,359.767975 455.561249,360.816284 456.665009,361.822693 
	C463.563019,368.112701 470.630737,374.208862 478.423492,379.377228 
	C489.628235,386.808594 501.292694,384.566132 513.222900,380.901459 
	C500.553070,373.754395 489.359589,365.237793 479.890472,354.097656 
	C482.136353,352.674530 483.681274,354.860809 485.305695,353.795380 
	C486.374451,351.763123 485.355743,350.411896 483.758484,349.203217 
	C481.928131,347.818115 480.775391,346.006866 480.956696,343.648926 
	C481.442291,337.334534 477.752777,333.091797 473.821350,328.941589 
	C472.565277,327.615692 470.501404,326.770538 470.726166,324.036774 
	C479.726166,327.492004 486.491486,338.594757 497.398926,330.426544 
	C499.434479,332.065308 499.517853,335.008057 502.517792,334.631287 
	C506.762939,334.097992 507.983917,336.645752 508.191650,340.363556 
	C508.477600,345.480896 509.334015,350.344696 515.333618,352.088593 
	C516.200195,352.340485 517.189453,352.987823 516.843811,354.387665 
	C514.944824,355.581207 512.627441,353.017578 510.535400,355.194366 
	C510.534149,359.439514 511.915558,363.048157 516.332092,364.945679 
	C521.378540,367.113892 526.375061,369.418976 531.508179,371.360718 
	C541.844604,375.270721 552.452942,378.161621 563.629517,377.687195 
	C568.397766,377.484802 573.162781,376.658630 577.388245,373.564789 
	C566.147156,371.041809 554.489258,371.231842 544.057739,365.944489 
	C554.295959,365.587433 564.684509,367.106293 575.504578,361.552094 
	C565.299500,356.546356 555.304138,353.845642 547.582214,346.774414 
	C557.193542,347.685608 566.060303,352.023376 576.302124,352.844421 
	C572.428650,348.122223 566.248047,345.083496 556.731262,342.182831 
	C543.839600,338.253448 530.458374,335.294037 518.309265,329.699158 
	C494.278229,318.632446 470.656860,306.547424 449.955994,289.629456 
	C447.663666,287.755981 445.469727,285.411743 441.723450,284.732483 
	C445.070770,294.837555 450.226105,303.233765 456.522461,311.017029 
	C450.726105,306.352783 445.206940,301.650635 440.170044,296.478790 
	C432.800232,288.911499 428.348358,279.198395 422.196350,270.801941 
	C410.599579,254.974304 397.269348,240.420593 387.466736,223.262115 
	C386.455505,221.492081 384.946198,219.442093 382.784576,220.489944 
	C380.168518,221.758102 381.463196,224.237503 382.314392,226.181931 
	C385.118256,232.587082 388.191925,238.879227 390.839111,245.346909 
	C397.788086,262.324677 405.162231,279.077332 414.992920,294.642761 
	C415.776611,295.883636 417.306519,297.124817 415.630219,300.315857 
	C400.869354,277.495178 386.983246,255.164139 376.536926,230.802536 
	C375.128052,231.107498 374.493225,232.284973 373.915680,233.504593 
	C367.861145,246.290527 361.390625,258.878387 356.310181,272.120911 
	C354.562195,276.677216 352.950562,280.874603 357.206757,284.894135 
	C351.694183,288.635254 345.710968,291.206390 343.872406,298.020142 
	C343.310547,300.102386 342.996063,302.061951 344.706909,303.565491 
	C346.819885,305.422424 347.910461,303.192596 349.220428,302.097137 
	C349.872528,301.551849 350.487762,301.005737 351.658142,301.692810 
	C352.051544,304.881470 349.714569,307.893677 350.328522,311.247192 
	C350.585815,312.652740 351.069000,313.979065 352.583466,314.189850 
	C354.380371,314.439911 354.641998,312.904968 354.950317,311.587250 
	C358.588287,296.036774 362.142120,280.465759 365.933014,264.952667 
	C366.747955,261.617737 365.818390,257.747589 369.258484,253.733856 
	C369.170776,262.787811 371.845001,270.363953 369.560760,278.433319 
	C363.941986,298.282135 363.026855,318.359497 367.962708,338.563446 
	C368.473297,340.653442 369.171936,342.994354 367.909149,345.290222 
	C364.612244,344.482239 365.922516,339.639038 361.975647,339.492462 
	C359.324646,342.451599 360.031677,346.550812 359.066620,350.098969 
	C356.688202,358.843262 357.541412,360.379364 365.851349,363.968597 
	C367.532288,364.694611 369.227692,365.412445 370.969727,365.966553 
	C374.861877,367.204620 375.940857,366.252869 375.109650,362.266693 
	C373.748108,355.737366 372.486511,349.197632 372.691437,342.488495 
	C372.726349,341.344635 372.094238,339.721283 374.051697,339.255615 
	C375.688354,340.467834 375.863556,342.361572 376.465485,344.062744 
	C378.912567,350.978394 381.781036,357.672699 385.410461,364.101440 
	C388.331848,369.276001 393.806091,369.626648 398.150085,372.087524 
	C399.091400,372.620758 400.439240,371.989410 400.981842,370.613373 
	C386.532806,351.745575 383.683472,328.806335 378.312958,306.718140 
	C382.848846,313.720825 382.730408,322.647491 387.538452,329.164429 
	C389.374084,329.184235 390.063324,328.442444 390.820435,327.789124 
	C397.082581,322.385437 402.134705,323.163269 406.040009,330.119354 
	C409.210388,335.766388 406.495300,347.080292 401.287079,347.937378 
	C395.590881,348.874725 396.157928,351.294891 398.390869,354.954041 
	C399.171631,356.233459 399.918060,357.533813 401.088501,359.427612 
M445.713104,409.201965 
	C438.156006,408.581207 437.759857,408.968414 439.463898,416.180359 
	C440.857727,422.079285 443.396332,427.488068 446.873596,432.462067 
	C448.573700,434.894043 450.850098,436.240906 453.695526,437.149384 
	C460.961700,439.469238 467.470947,438.300659 473.403870,433.627075 
	C477.588318,430.330872 481.715118,426.961487 485.899536,423.665314 
	C488.163513,421.881958 490.068268,419.508636 492.986053,418.782959 
	C493.989288,420.063568 493.402374,421.058624 492.891968,421.806366 
	C484.396149,434.252045 474.231781,444.750824 459.777618,450.323792 
	C455.823944,451.848175 452.787933,450.328369 450.367645,447.655182 
	C444.667114,441.358978 439.138916,434.906097 435.594055,427.022339 
	C432.727386,420.646881 429.670410,414.356812 426.678070,408.038239 
	C425.833557,406.254913 424.548615,404.822723 422.413300,405.388977 
	C419.749756,406.095367 420.746246,408.176331 421.105438,409.917450 
	C421.340576,411.057159 421.563843,412.205353 421.899872,413.317291 
	C426.480774,428.476105 431.621735,443.415009 438.978851,457.508026 
	C439.922028,459.314697 441.555634,461.033661 440.837280,463.749878 
	C438.231079,462.785217 437.432861,460.489471 436.498505,458.517059 
	C428.812988,442.292877 419.531677,426.737793 415.376495,409.017456 
	C414.382141,404.776855 412.014221,402.603821 407.647095,401.791962 
	C399.629791,400.301514 391.686310,398.393768 383.746887,396.512939 
	C379.727661,395.560730 378.171265,397.009399 378.279724,401.030914 
	C378.528687,410.264374 380.352875,419.189087 383.044189,427.988861 
	C383.536530,429.598572 384.913452,431.213593 383.720154,433.288727 
	C383.269043,432.931366 382.723297,432.720551 382.578064,432.351929 
	C377.776337,420.161316 370.513824,408.947754 368.041473,395.833435 
	C367.671265,393.869598 367.334320,391.898743 367.025879,389.924255 
	C366.612122,387.275665 364.784210,386.298401 362.423187,386.254425 
	C359.692963,386.203522 358.629578,388.111633 358.438995,390.471497 
	C358.279022,392.451935 358.192566,394.511078 358.549194,396.447815 
	C360.054474,404.622437 362.009583,412.722900 363.257935,420.932983 
	C364.057739,426.193115 368.187317,432.087738 361.541656,436.659698 
	C361.240967,436.866577 361.228241,437.591125 361.200623,438.081268 
	C360.732391,446.394745 359.990784,454.698792 360.302063,463.040405 
	C360.369629,464.851624 360.838684,466.390778 362.971893,466.618408 
	C365.216003,466.857849 365.674133,465.386322 366.026917,463.558167 
	C366.877014,459.152954 367.511993,454.647522 368.962372,450.433319 
	C370.430054,446.168915 369.986389,441.318054 372.950989,436.838196 
	C375.871826,441.634613 375.380188,446.581329 376.332550,451.163483 
	C376.792450,453.376068 377.278748,456.015808 380.175598,455.121552 
	C384.235168,453.868317 388.516144,453.170746 392.038391,450.243896 
	C400.124756,443.524445 410.711517,447.177185 413.395721,457.412903 
	C413.741638,458.731934 414.123444,459.998962 415.755219,460.162476 
	C418.754639,459.048798 416.235199,454.807373 420.508240,453.362732 
	C421.654175,464.997070 428.689850,474.200348 432.043579,484.893433 
	C434.435425,492.519623 435.580811,493.485474 443.616150,493.714813 
	C445.610962,493.771790 447.690552,493.961304 449.594360,493.511139 
	C454.955688,492.243439 460.132080,492.472229 465.315308,494.336853 
	C468.702362,495.555298 471.179810,494.755524 473.231415,491.338562 
	C475.819946,487.027344 479.359589,483.303314 481.023407,478.266357 
	C484.055023,480.204742 483.569672,482.872253 483.862457,484.998138 
	C484.573486,490.161011 487.530304,492.927277 492.255402,494.340576 
	C493.838440,494.814087 495.302460,495.724548 496.899567,496.105133 
	C504.069946,497.813873 511.477509,500.869659 517.297729,493.114563 
	C517.664673,492.625671 518.380737,492.302216 518.998962,492.113922 
	C523.621887,490.706268 525.439270,487.288788 526.079407,482.796844 
	C526.339539,480.971558 526.446350,478.691101 529.097656,478.314667 
	C531.143616,479.772522 531.343445,482.029999 531.796448,484.090302 
	C532.389465,486.787781 533.738770,489.056152 535.446350,491.112640 
	C536.877991,492.836823 538.720276,493.000885 540.116333,491.180634 
	C542.226318,488.429504 544.391235,485.636993 545.945007,482.564819 
	C547.724426,479.046478 546.776978,475.495789 543.655884,473.173279 
	C535.639465,467.207886 527.525269,461.369904 518.275269,457.330902 
	C514.629150,455.738739 512.989258,456.926605 512.385681,460.585327 
	C511.143219,468.116943 507.140961,471.080658 499.587158,469.988251 
	C490.660492,468.697266 482.101196,465.885956 473.424561,463.551178 
	C469.848846,462.588989 469.750153,460.827393 471.512146,458.116089 
	C476.140106,450.994720 480.661285,443.803314 485.345734,436.719635 
	C486.998383,434.220490 489.014343,431.953644 491.581390,430.303040 
	C498.315308,425.973267 503.482819,427.886902 505.368958,435.604675 
	C506.180603,438.925842 507.848816,439.977936 511.113312,439.287781 
	C513.298096,438.825897 515.197266,438.036896 516.913147,436.596741 
	C526.112244,428.875763 534.572449,420.365479 543.194092,412.029633 
	C544.297729,410.962646 545.902222,409.880219 544.897583,407.443817 
	C538.531921,406.973877 532.185425,406.992126 526.131958,410.030975 
	C524.653687,410.773041 522.800293,412.534546 521.250793,410.370819 
	C518.989319,407.212982 516.024963,408.011200 513.110107,408.545563 
	C502.122192,410.559998 491.111359,412.260773 479.888641,412.131348 
	C468.705627,412.002380 457.648621,410.490265 445.713104,409.201965 
M664.495239,409.087128 
	C665.311768,413.339325 666.211914,417.618866 665.803162,421.955200 
	C665.145813,428.929321 660.736328,431.192505 654.641357,427.861115 
	C651.397034,426.087799 648.640564,423.714935 646.080139,421.047974 
	C644.787292,419.701355 643.828613,417.654572 641.047729,417.803101 
	C641.038574,424.344360 643.015991,430.517334 644.117371,436.744476 
	C646.888733,452.413971 653.625671,467.145752 655.531128,483.063660 
	C655.589539,483.551147 655.822632,484.016602 655.963013,484.495605 
	C656.439270,486.120972 656.905273,487.858154 658.953247,488.028656 
	C660.798462,488.182281 661.367188,486.485840 662.180847,485.294220 
	C672.501038,470.179932 682.238647,454.653992 693.925842,440.507690 
	C696.835632,436.985596 698.399048,432.839966 699.930847,428.561188 
	C703.697266,418.040497 705.745483,407.049988 709.160583,396.449677 
	C710.362061,392.720459 709.085815,390.752716 705.613525,389.634796 
	C702.291870,388.565430 698.939148,387.550293 695.716431,386.227844 
	C692.584778,384.942780 689.665344,384.977661 686.534058,386.226746 
	C683.296753,387.518127 679.919800,388.461090 676.598694,389.540466 
	C659.661316,395.045166 662.864380,395.521057 664.495239,409.087128 
M587.321594,442.678955 
	C584.410889,440.306793 583.667664,444.408508 581.275452,444.909180 
	C581.243652,439.120392 582.416321,433.807098 583.308838,428.472717 
	C583.755066,425.805481 583.020325,423.607819 580.118958,424.523376 
	C571.151184,427.353210 560.771545,428.159851 557.302734,439.608521 
	C556.406067,442.567993 554.439453,445.221710 552.833862,447.938782 
	C552.208679,448.996704 551.718018,450.471741 549.364502,450.185425 
	C550.132568,445.879730 552.274414,442.166901 553.856323,438.276642 
	C554.816345,435.915680 554.490662,433.717529 551.573303,434.574158 
	C542.325134,437.289642 533.179932,440.397217 524.409424,444.448425 
	C522.563660,445.301025 522.026001,447.383545 523.961914,448.392487 
	C532.224426,452.698578 539.320923,458.890656 547.774536,462.868011 
	C550.734558,464.260742 555.085388,463.920532 556.590698,466.849152 
	C559.655212,472.811005 565.121094,475.060760 570.535339,477.411133 
	C576.137573,479.843079 577.619202,478.639832 578.101624,472.613861 
	C578.293579,470.216248 577.473633,467.371338 580.277405,465.432465 
	C581.670837,467.317932 581.184509,469.225677 581.469727,470.964447 
	C582.658386,478.210358 586.684631,482.047668 592.826477,481.924133 
	C595.553589,481.869263 597.480774,480.816162 597.558838,477.953491 
	C597.687561,473.232544 599.334351,468.815948 599.988220,464.240692 
	C600.639587,459.683319 600.339844,454.930969 599.220459,450.413971 
	C598.323853,446.795715 594.321167,447.518707 591.904358,445.972809 
	C590.506287,445.078522 589.207947,444.028381 587.321594,442.678955 
M429.892029,173.315170 
	C434.124512,177.180008 438.892700,179.023895 444.479187,176.664093 
	C454.091003,172.603943 464.158203,172.283096 474.344635,172.703064 
	C477.777649,172.844589 480.940948,171.757492 483.878998,170.171173 
	C487.685913,168.115738 487.740784,165.881424 483.897461,163.785751 
	C479.140442,161.191879 475.132507,157.843475 471.690155,153.686386 
	C469.343140,150.852020 466.463440,148.562454 463.222382,146.784973 
	C455.775818,142.701035 449.837891,143.622543 443.819519,149.632019 
	C441.587952,151.860321 439.138458,153.869141 436.880859,156.072845 
	C432.229340,160.613235 428.684174,165.681107 429.892029,173.315170 
M600.115540,358.143738 
	C606.108276,358.637390 609.931152,363.074280 614.522888,366.099854 
	C620.453308,370.007477 622.644592,369.524200 626.782043,363.644196 
	C628.643433,360.998749 629.602417,357.651337 632.827209,355.416473 
	C635.936340,360.537415 633.847656,367.671112 639.060181,371.699371 
	C640.830383,370.357574 640.950745,368.946564 641.195862,367.685883 
	C642.113708,362.966339 643.271606,358.723846 646.939880,354.881500 
	C649.682739,352.008514 651.061157,347.268677 649.544739,342.575592 
	C645.770935,343.383850 645.841492,347.877686 641.748535,348.379059 
	C641.960388,340.561249 646.491333,333.523102 645.825745,324.573120 
	C627.712280,341.799957 606.614319,347.991821 582.633972,348.838470 
	C588.777710,352.080048 594.153931,354.916656 600.115540,358.143738 
M638.149963,474.703674 
	C636.958557,463.344635 634.426086,452.343170 630.242615,440.816467 
	C627.932495,443.470978 628.332397,445.378326 628.383240,447.129333 
	C628.644287,456.108063 629.058960,465.082550 629.293457,474.061768 
	C629.462463,480.532410 629.130310,480.713531 622.679260,479.866669 
	C619.359314,479.430817 617.796448,481.781128 616.912964,484.312317 
	C615.999634,486.929108 618.376282,487.901611 620.206787,488.415802 
	C626.144043,490.083649 631.881653,492.272552 637.660156,494.392120 
	C642.556458,496.188110 644.645447,494.202881 643.441711,488.976868 
	C642.362366,484.291046 641.228394,479.567230 638.149963,474.703674 
M392.199463,485.320648 
	C401.667114,490.098145 411.687042,491.875488 422.198700,490.625732 
	C424.329742,490.372375 427.624481,490.572998 427.219696,487.257385 
	C426.836487,484.118286 426.008911,480.757996 423.075836,478.393066 
	C422.392334,478.812683 421.747437,479.048523 421.335480,479.497894 
	C420.667511,480.226471 420.087097,481.056671 419.583252,481.910919 
	C416.357147,487.380493 415.343140,487.790466 409.397644,485.163818 
	C406.753906,483.995880 404.262665,482.931244 401.288940,483.937073 
	C400.016815,484.367340 398.572327,484.025635 397.456116,483.247681 
	C392.025299,479.462524 385.158325,478.008698 380.610504,472.769501 
	C379.348053,471.315125 377.386505,470.194824 375.933197,472.062531 
	C374.679077,473.674286 376.219788,475.185333 377.664276,476.123352 
	C382.264191,479.110321 386.914276,482.020020 392.199463,485.320648 
M671.055725,372.600342 
	C668.733276,372.481934 666.408936,372.236786 664.088867,372.272186 
	C659.612305,372.340485 659.069275,375.344879 659.549988,378.845764 
	C660.334961,384.562439 662.176086,386.566650 666.036560,385.363800 
	C672.053711,383.488861 677.934937,381.176361 683.866760,379.030029 
	C685.307739,378.508606 686.834473,377.853729 686.619873,375.992828 
	C686.379333,373.906830 684.609558,373.535065 682.906067,373.409485 
	C679.262573,373.140747 675.612305,372.962463 671.055725,372.600342 
M548.623596,426.985962 
	C564.282959,422.118439 560.534058,423.204529 562.539124,412.566711 
	C562.773376,411.324249 563.006104,409.807434 561.637573,408.936340 
	C560.254639,408.055969 559.102539,409.065948 557.986145,409.700684 
	C554.552307,411.652985 552.667908,415.093811 550.182190,417.955841 
	C549.002014,419.314636 548.063843,420.894836 545.846252,420.805237 
	C539.238342,420.538269 537.318909,426.138794 533.075195,430.252960 
	C539.293274,431.607513 543.360413,428.416870 548.623596,426.985962 
M513.457947,126.147903 
	C505.940796,130.040497 502.231476,140.298676 505.579865,147.934784 
	C507.880829,153.182144 513.938416,156.796661 519.737793,156.382721 
	C526.396851,155.907425 531.257080,152.043457 532.856323,145.953278 
	C536.112183,133.554611 527.233582,124.053894 513.457947,126.147903 
M473.373047,179.980850 
	C474.303467,179.012543 476.313873,178.890472 475.875641,176.584717 
	C467.155579,175.162598 458.496002,174.018951 450.110657,178.184280 
	C447.962524,179.251358 444.772491,179.596893 445.384705,182.971237 
	C445.969635,186.195190 448.832489,186.567001 451.614197,186.728638 
	C459.452667,187.184113 466.201904,184.061432 473.373047,179.980850 
M606.625000,464.275421 
	C607.479065,469.420807 611.150330,472.682465 614.507751,477.609283 
	C614.507751,468.640503 614.611755,461.153778 614.435242,453.673645 
	C614.390686,451.785736 613.867676,449.380432 611.120300,449.568146 
	C608.533936,449.744812 607.542480,451.662262 607.380432,454.064087 
	C607.168457,457.204987 606.966125,460.346527 606.625000,464.275421 
M574.332825,417.871277 
	C580.162903,415.627380 577.177856,410.098480 578.551575,406.202881 
	C579.142090,404.528412 579.292847,401.950928 576.491760,401.463409 
	C574.207703,401.065826 572.737061,402.497620 571.979004,404.523071 
	C570.882385,407.453491 569.886658,410.423431 568.915344,413.398529 
	C567.382507,418.093475 568.466431,419.171417 574.332825,417.871277 
M553.457458,486.575470 
	C550.541260,489.144318 546.864502,490.915680 544.477173,494.398956 
	C547.617065,497.063751 550.597229,495.716553 553.361511,495.283081 
	C559.270020,494.356537 559.824158,492.758179 556.068176,488.168365 
	C555.569031,487.558411 554.766479,487.196686 553.457458,486.575470 
M599.243347,312.272858 
	C598.875732,309.907501 598.656433,307.492065 596.842468,305.578125 
	C598.824097,317.163849 600.308350,328.838287 604.244385,340.043152 
	C606.616638,337.623413 605.779358,335.174988 604.891113,332.729950 
	C602.561890,326.318481 600.420105,319.855286 599.243347,312.272858 
M585.284912,413.629730 
	C587.661011,409.645142 586.778931,405.206512 587.831238,400.659058 
	C583.476257,402.174774 580.799744,408.057068 581.003296,414.256653 
	C582.266174,415.142456 583.482727,414.727997 585.284912,413.629730 
z"/>
<path fill="#000000" opacity="1.000000" stroke="none" 
	d="
M575.464233,57.270584 
	C566.946472,62.738495 557.478760,63.469158 548.285034,63.956535 
	C509.830566,65.995102 471.879791,62.747406 434.882812,51.357204 
	C429.937561,49.834732 425.120087,47.935707 421.095062,44.548164 
	C416.726593,40.871540 416.981262,36.665741 421.815552,33.569046 
	C428.041046,29.581186 435.269958,28.565878 442.318542,27.902584 
	C469.115570,25.380892 495.768433,26.944571 522.335144,31.258373 
	C537.328613,33.692951 552.069519,36.819115 566.124573,42.683674 
	C569.190552,43.962986 572.209839,45.448753 574.648193,47.784637 
	C577.495056,50.511856 578.585754,53.544571 575.464233,57.270584 
M484.133453,53.195530 
	C505.311676,56.400272 526.617981,56.251404 547.937683,55.548302 
	C550.581848,55.461098 553.247498,54.981079 555.828430,54.368156 
	C557.688904,53.926327 560.131775,53.557297 560.249756,51.047035 
	C560.352478,48.861317 558.247192,48.065620 556.565857,47.486832 
	C552.167542,45.972736 547.744812,44.476448 543.240601,43.332279 
	C526.425415,39.060833 509.288116,36.551228 492.008026,35.593731 
	C474.907745,34.646191 457.737823,33.564041 440.661987,36.274353 
	C437.983337,36.699520 434.999329,36.749355 433.159882,40.657604 
	C449.139771,48.593491 466.201508,50.806664 484.133453,53.195530 
z"/>
<path fill="#000000" opacity="1.000000" stroke="none" 
	d="
M366.161377,168.374481 
	C366.208282,170.457184 367.081604,172.479019 364.186340,173.584564 
	C363.343018,169.746475 362.856964,165.683289 358.561310,164.001617 
	C355.636322,162.856537 352.660919,162.822174 349.732422,163.556290 
	C343.748291,165.056396 341.952087,168.973419 342.722351,178.619080 
	C341.764984,179.016602 340.703094,179.413574 339.678528,179.890640 
	C335.428223,181.869614 333.464600,185.468353 334.679718,188.998398 
	C335.862854,192.435638 340.083771,194.610672 344.205627,193.257202 
	C347.672943,192.118683 350.375031,191.743225 353.837250,193.981689 
	C357.166656,196.134293 360.940369,194.963730 363.261017,191.190933 
	C363.835297,190.257263 363.698456,188.800064 365.538452,188.453690 
	C367.375000,190.591629 366.513519,192.718155 364.901825,194.391769 
	C362.086304,197.315399 358.307220,199.126343 354.524475,197.476440 
	C350.610321,195.769226 346.946228,195.998550 342.975189,196.288773 
	C337.263275,196.706223 332.921967,193.958878 331.545013,189.367645 
	C330.013428,184.260727 332.288483,180.575409 336.538910,178.054108 
	C338.641418,176.806915 338.768768,175.106308 338.978149,173.039566 
	C339.713531,165.781006 343.939636,161.570648 351.486969,160.278488 
	C357.954163,159.171249 362.887726,161.779739 366.161377,168.374481 
z"/>
<path fill="#000000" opacity="1.000000" stroke="none" 
	d="
M375.742249,254.039291 
	C375.443268,248.613983 375.176575,243.642838 375.760681,238.677368 
	C375.788666,238.439453 376.198364,238.246475 376.434265,238.036850 
	C376.927795,238.543747 385.058014,295.991028 384.385162,297.359589 
	C379.508240,283.495270 377.585785,269.005188 375.742249,254.039291 
z"/>
<path fill="#000000" opacity="1.000000" stroke="none" 
	d="
M458.029816,152.829498 
	C459.997406,152.268677 462.349518,151.859848 461.809479,154.261642 
	C461.194672,156.996140 458.502319,157.282043 456.024475,156.691040 
	C455.103363,154.539795 456.504791,153.811630 458.029816,152.829498 
z"/>
<path fill="#000000" opacity="1.000000" stroke="none" 
	d="
M623.152954,348.963409 
	C626.925110,346.452972 629.819763,343.134155 634.261475,341.891144 
	C633.507874,349.282501 627.342773,353.967987 621.079468,352.299377 
	C620.477539,350.570770 621.984375,350.044495 623.152954,348.963409 
z"/>
<path fill="#000000" opacity="1.000000" stroke="none" 
	d="
M507.829346,135.248474 
	C511.792358,128.800674 516.428894,126.757690 522.034546,128.691879 
	C527.637085,130.625000 531.151123,136.564056 530.474792,142.956970 
	C529.835938,148.996140 525.962219,152.973465 519.960754,153.752197 
	C513.419434,154.600998 507.073120,148.216080 506.927429,140.483582 
	C506.896942,138.865341 507.412811,137.236786 507.829346,135.248474 
z"/>
</svg>