<svg version="1.1" id="Layer_1" xmlns="http://www.w3.org/2000/svg" xmlns:xlink="http://www.w3.org/1999/xlink" x="0px" y="0px"
	 width="100%" viewBox="0 0 1024 576" enable-background="new 0 0 1024 576" xml:space="preserve">
<path fill="#000000" opacity="1.000000" stroke="none" 
	d="
M623.897705,473.769928 
	C613.661316,497.800964 603.665222,511.376373 584.787354,526.957947 
	C585.676147,529.366882 588.110962,530.006653 589.941650,531.292542 
	C597.166016,536.366882 604.611389,541.183289 609.988342,548.401245 
	C611.173706,549.992493 612.341675,551.692444 613.050049,553.523254 
	C614.487854,557.239258 612.628662,559.490112 608.689941,558.725220 
	C604.120361,557.837769 599.620422,556.590393 595.093384,555.486328 
	C590.679016,554.409729 587.594604,555.534790 585.244019,559.859802 
	C580.807861,568.021912 578.711975,568.376831 570.645996,563.707458 
	C568.772217,562.622681 566.782471,561.719543 564.985901,560.523071 
	C557.525024,555.553955 549.766724,555.428223 541.662720,558.732056 
	C539.517456,559.606628 537.225098,560.173096 534.955200,560.679077 
	C529.572815,561.878967 526.650085,558.870178 528.050415,553.291077 
	C529.631287,546.992615 533.352539,541.878235 537.780518,537.230042 
	C539.597168,535.323059 541.874573,533.794739 543.365845,530.362427 
	C537.857300,528.571655 532.511536,526.585266 527.030945,525.094788 
	C501.947357,518.273071 476.436096,517.291260 450.791260,520.572449 
	C445.882843,521.200439 441.239746,524.160767 436.568054,526.254395 
	C434.660187,527.109436 435.789459,528.828674 436.084076,530.232300 
	C438.040802,539.554810 436.798309,542.169495 427.866150,545.329956 
	C415.146301,549.830627 402.100739,553.249634 388.932617,556.183411 
	C385.751617,556.892090 382.912964,556.869141 381.862793,552.849915 
	C381.033203,549.674866 378.425018,550.121216 376.141144,550.482422 
	C371.212494,551.261963 366.328857,552.327087 361.399170,553.099121 
	C354.458649,554.186035 353.377899,553.152649 353.979248,546.358398 
	C352.576569,544.711121 350.592621,545.490662 348.858398,545.230103 
	C346.852448,544.928589 344.623962,544.717163 344.052002,542.394470 
	C343.541168,540.319702 345.289703,539.028381 346.700684,537.918213 
	C353.259827,532.757629 361.122925,530.404419 368.899780,527.953186 
	C374.133850,526.303467 379.480896,525.014343 384.758453,523.498047 
	C385.644501,523.243469 386.434082,522.653015 387.185150,522.261108 
	C386.798950,520.167053 385.242981,519.644775 384.007660,518.941895 
	C378.544067,515.833130 374.057617,512.172363 374.484558,504.991028 
	C374.544281,503.987061 373.697144,502.813782 373.025085,501.898529 
	C355.846130,478.502289 348.650146,451.537262 344.682892,423.357910 
	C343.061249,411.839355 342.874268,400.202606 341.453094,387.569275 
	C337.123047,394.109497 333.327911,399.848846 329.524902,405.583038 
	C327.403900,408.781097 325.276245,412.006653 322.166138,414.340240 
	C317.269165,418.014648 312.831635,416.759888 310.767334,410.987823 
	C307.293640,401.274597 308.264008,391.147461 309.149170,381.268311 
	C312.327942,345.788757 321.689789,311.927490 337.180176,279.809204 
	C344.205444,265.242767 351.901917,250.994766 360.574554,237.384445 
	C368.387238,225.123672 372.712677,211.605011 377.737671,198.216888 
	C385.360596,177.907120 386.763458,156.315292 391.661804,135.456879 
	C395.956573,117.168785 401.278229,99.285759 413.036377,84.240646 
	C429.989471,62.548363 452.314514,50.409161 479.813873,47.575069 
	C502.792786,45.206852 524.267883,49.645084 544.176331,61.149971 
	C567.325012,74.527405 580.798767,95.435646 589.126709,120.215416 
	C594.657043,136.670868 598.168213,153.611816 601.468628,170.600891 
	C604.198059,184.650665 609.284973,197.836853 616.294434,210.202896 
	C640.845215,253.514893 654.391724,300.519989 663.169922,349.108490 
	C667.042969,370.545776 671.050598,391.972931 673.723755,413.610229 
	C674.049133,416.243774 674.281555,418.932404 674.135681,421.572266 
	C673.727905,428.954742 668.769836,431.384583 662.473633,427.583557 
	C655.764893,423.533478 650.759399,417.780945 646.036255,411.709900 
	C644.417908,409.629700 642.840393,407.517731 640.689575,404.691498 
	C638.639771,429.010406 633.111328,451.656891 623.897705,473.769928 
M360.079224,262.413971 
	C351.523163,294.193146 346.720306,326.511566 345.008331,359.396973 
	C344.129639,376.276215 345.018951,393.002838 346.276154,409.765198 
	C347.903564,431.463989 352.220703,452.584991 360.126343,472.926361 
	C361.702545,476.982025 364.442352,479.758545 367.757202,482.488220 
	C382.837952,494.906830 400.733215,497.487488 419.331635,497.905701 
	C421.576599,497.956177 423.538361,497.190613 425.460938,496.069855 
	C427.465637,494.901215 429.500000,493.516907 431.703003,492.998291 
	C445.694641,489.704529 459.761993,487.628143 474.263000,489.321930 
	C484.571899,490.526031 494.393677,493.822266 504.592224,495.407928 
	C515.472778,497.099701 526.228271,498.600098 533.492126,508.845947 
	C536.854553,513.588806 540.089844,518.370789 542.820190,523.443848 
	C543.980713,525.600098 545.137939,526.901489 547.468262,527.312622 
	C556.763367,528.952576 566.018677,529.240051 575.173401,526.494507 
	C584.185486,523.791748 588.829956,517.314453 588.563965,507.948303 
	C588.492310,505.422516 588.829224,502.935303 589.818420,500.617126 
	C590.726196,498.489990 592.365479,496.639526 594.797119,497.341492 
	C599.722961,498.763458 602.382446,495.703003 605.697815,493.050079 
	C612.981384,487.221710 617.083801,480.308044 615.440247,470.694794 
	C615.317932,469.979797 615.854370,469.115601 616.185974,468.365601 
	C618.287537,463.612244 619.227417,458.577057 619.781128,453.459137 
	C621.956726,433.350586 621.956909,413.228455 619.659424,393.142578 
	C617.826477,377.118256 616.043823,361.104309 609.726196,345.945618 
	C604.516541,333.445465 601.740051,320.192627 599.716553,306.832642 
	C595.683350,280.205200 586.821960,255.111099 574.412537,231.421768 
	C560.051147,204.006134 536.375610,194.726181 506.737976,203.517441 
	C498.917664,205.837128 491.125336,208.251953 483.295013,210.536957 
	C464.273071,216.087860 445.387848,217.641754 426.687775,209.020874 
	C419.673798,205.787354 413.608917,201.041656 406.870422,197.406631 
	C396.797668,191.972977 389.586761,193.316238 381.976257,201.842880 
	C378.812195,205.387848 376.499359,209.462601 375.138306,213.945511 
	C370.301910,229.875259 364.260925,245.428360 360.079224,262.413971 
M432.206116,138.709396 
	C427.831146,142.522018 424.640350,147.100845 423.098236,152.752609 
	C421.402954,158.965805 425.106018,163.821472 431.539520,163.635223 
	C435.225616,163.528519 438.777374,162.549850 442.232208,161.301239 
	C448.863861,158.904465 455.573059,157.224106 462.743713,157.765244 
	C471.150146,158.399597 479.334564,157.720215 486.344788,151.987808 
	C486.164764,150.977188 485.057190,150.406342 484.050751,149.934387 
	C477.113892,146.681335 471.662201,141.620392 466.557983,136.044861 
	C464.777649,134.100143 462.627441,132.423508 460.431671,130.942490 
	C452.893127,125.857841 445.780060,126.499542 439.112671,132.632462 
	C437.029419,134.548721 434.863525,136.375214 432.206116,138.709396 
M620.075317,353.285797 
	C609.699036,327.431396 603.153015,300.495270 597.808533,273.215088 
	C601.619690,297.176483 603.447510,321.495209 612.150146,344.447021 
	C620.763367,367.163147 631.626831,388.577820 646.859680,407.595795 
	C642.288574,398.746460 637.472656,390.029633 632.911560,381.181427 
	C628.337463,372.307831 623.912598,363.351379 620.075317,353.285797 
M336.313568,360.729828 
	C331.872070,373.597595 327.863251,386.563293 327.264343,400.501007 
	C332.536194,395.612885 336.596527,389.311310 339.057312,383.526154 
	C343.382507,373.357727 340.312073,361.578918 342.187622,350.565552 
	C341.631042,350.439545 341.074463,350.313568 340.517853,350.187561 
	C339.213806,353.462891 337.909760,356.738190 336.313568,360.729828 
M468.835571,166.346588 
	C470.925323,164.989517 473.565369,164.265045 474.901917,161.568466 
	C459.572205,159.019150 444.818909,161.232513 434.749237,167.584457 
	C437.298645,171.515381 441.294983,172.302887 445.410950,172.672379 
	C453.703705,173.416794 461.118683,170.674545 468.835571,166.346588 
M528.290344,137.905518 
	C535.005554,131.582657 535.999878,121.290955 530.595764,114.044098 
	C526.892151,109.077637 519.679199,106.499146 514.294495,108.216721 
	C504.996826,111.182419 500.323822,121.882439 504.178925,131.378799 
	C507.798065,140.293869 517.688416,143.220276 528.290344,137.905518 
M406.702850,507.728333 
	C401.553558,507.021149 397.617310,509.443298 394.858917,514.970825 
	C398.860138,520.828735 404.185547,524.210388 411.458282,524.117249 
	C415.911621,524.060181 417.868256,520.841553 419.227417,517.519836 
	C420.519135,514.363159 417.430511,513.318848 415.342743,512.123230 
	C412.758026,510.642975 410.067963,509.346710 406.702850,507.728333 
M414.331146,137.420593 
	C415.229645,136.837921 416.536316,136.732803 416.838013,135.161713 
	C412.786682,136.406265 409.659058,134.978180 408.130157,131.395203 
	C405.986450,126.371468 405.344940,120.977043 408.430786,116.098633 
	C410.843597,112.284172 414.502197,110.606277 419.405640,112.827507 
	C415.736725,107.990250 410.914764,108.022629 408.096985,112.929398 
	C405.423279,117.585243 404.023560,122.843178 404.579071,128.247940 
	C405.289490,135.160324 407.904877,137.592560 414.331146,137.420593 
z"/>
<path fill="#000000" opacity="1.000000" stroke="none" 
	d="
M451.226868,139.245300 
	C454.546875,136.575699 454.546875,136.575699 457.927032,138.191635 
	C455.868774,140.433136 454.207031,142.923828 451.226868,139.245300 
z"/>
<path fill="#000000" opacity="1.000000" stroke="none" 
	d="
M531.016724,124.993896 
	C529.420044,133.794647 525.326172,137.828674 518.541382,137.697617 
	C512.429871,137.579544 507.089050,132.611618 506.066528,126.093674 
	C505.082611,119.822075 508.885132,113.562225 514.892090,111.564720 
	C520.905029,109.565224 527.440735,113.064331 529.925293,119.734749 
	C530.498535,121.273735 530.661011,122.965698 531.016724,124.993896 
z"/>
</svg>