<svg version="1.1" id="Layer_1" xmlns="http://www.w3.org/2000/svg" xmlns:xlink="http://www.w3.org/1999/xlink" x="0px" y="0px"
	 width="100%" viewBox="0 0 1024 576" enable-background="new 0 0 1024 576" xml:space="preserve">
<path fill="#000000" opacity="1.000000" stroke="none" 
	d="
M567.458069,577.000000 
	C559.540100,570.380249 551.383667,566.973694 541.421204,571.182556 
	C539.290283,572.082764 536.998291,572.750610 534.715149,573.110596 
	C529.917419,573.866943 527.411133,571.172424 528.362610,566.354858 
	C529.534119,560.422791 533.015930,555.751343 536.906128,551.334412 
	C540.881287,546.821045 540.734558,546.102844 534.952332,543.965881 
	C514.633484,536.456421 493.549530,534.363953 472.062134,535.232300 
	C463.264648,535.587830 454.442627,535.533020 446.326904,539.981262 
	C443.277588,541.652649 441.646851,543.435974 442.383484,547.010071 
	C443.481506,552.337219 440.943359,555.660889 436.157654,557.496643 
	C424.321716,562.036987 412.135925,565.406189 399.765686,568.117065 
	C397.966461,568.511353 395.553009,568.767944 394.705902,566.990906 
	C392.097931,561.520081 387.607727,563.235962 383.480621,563.642761 
	C381.173553,563.870117 378.920563,564.599792 376.623932,564.989441 
	C372.818359,565.635254 369.181091,566.065125 368.357513,560.671814 
	C368.028839,558.519470 365.824982,558.307800 364.050079,557.839172 
	C362.451324,557.417114 360.621613,557.160828 360.295532,555.094421 
	C359.987213,553.141052 361.435944,552.096619 362.745697,551.057678 
	C370.824097,544.649292 380.652985,542.480408 390.244751,539.754272 
	C392.769165,539.036804 395.377991,538.570374 397.418854,537.058960 
	C397.418854,536.363892 397.558105,535.871033 397.398956,535.739746 
	C386.544708,526.783325 383.127075,513.160645 376.288055,501.709503 
	C373.954102,497.801453 371.849243,494.421234 367.427582,492.955597 
	C359.312622,490.265656 356.316498,484.832031 356.870728,476.193268 
	C358.405670,452.268616 359.587189,428.327484 363.322235,404.605896 
	C363.477539,403.619507 363.621094,402.629822 363.723877,401.636841 
	C364.468384,394.443787 363.673431,394.374634 356.459503,395.606354 
	C345.965942,397.398102 336.527740,403.885437 325.332245,402.397552 
	C323.028015,402.091400 321.824982,403.900024 320.766235,405.695465 
	C318.184326,410.073975 314.103394,411.055817 309.520447,410.139862 
	C304.887177,409.213837 301.931061,405.922211 301.836365,401.430542 
	C301.609955,390.691101 297.916046,383.338409 288.424286,376.606018 
	C274.931671,367.035858 276.688965,344.865967 290.758881,332.818695 
	C297.174347,327.325500 298.977081,320.811096 298.447266,313.391785 
	C296.823181,290.648621 294.663483,267.944183 292.901672,245.210007 
	C292.461304,239.527130 289.819702,236.361221 284.313660,235.215485 
	C280.555603,234.433472 276.941864,233.128067 273.546234,231.288315 
	C268.145020,228.361969 264.539398,224.174606 263.248352,217.948578 
	C259.754913,201.101685 257.950745,184.092453 257.844788,166.898178 
	C257.791687,158.279190 261.450867,152.574112 269.976349,149.564865 
	C282.318268,145.208527 294.907227,143.658203 307.814819,144.787216 
	C317.701080,145.651978 322.393585,149.917206 324.030792,159.480957 
	C326.841675,175.900497 328.347839,192.445801 328.096405,209.143311 
	C327.964630,217.894257 324.633209,224.576935 316.925079,228.941956 
	C314.317444,230.418655 311.897156,232.302307 309.163666,233.464813 
	C303.565155,235.845764 302.194092,240.455399 302.631317,245.704865 
	C304.426300,267.256256 306.421631,288.791168 308.392609,310.327637 
	C308.953705,316.458466 310.606903,317.770996 316.665253,316.565613 
	C326.163879,314.675781 335.741699,314.361725 345.374939,314.550903 
	C346.499359,314.573029 347.681824,314.249878 348.755096,313.860138 
	C359.554352,309.939178 370.247803,305.701996 381.153900,302.108856 
	C388.639587,299.642609 392.739044,294.258362 395.927429,287.675995 
	C396.432373,286.633484 396.644318,285.101013 397.472321,284.616638 
	C406.110718,279.563568 405.217773,270.452606 406.587250,262.593689 
	C409.505676,245.845657 411.904327,229.015015 419.155853,213.401642 
	C420.627686,210.232666 421.862396,206.769211 424.057587,204.156738 
	C429.605957,197.553589 430.304626,189.834930 430.686523,181.761810 
	C431.235077,170.166122 432.085968,158.657715 435.047577,147.249496 
	C436.851318,140.301376 436.251129,132.696701 436.455322,125.379272 
	C436.560516,121.610573 433.234222,120.759399 430.506622,119.513512 
	C417.431335,113.541161 408.197937,104.123169 405.897430,89.565819 
	C401.387756,61.028927 420.405212,36.557308 449.129486,33.843880 
	C457.880035,33.017265 465.472717,30.489996 473.188873,25.926172 
	C495.557587,12.695884 519.675171,7.067534 545.567871,13.729094 
	C561.754517,17.893528 574.337341,27.450369 583.889404,40.913559 
	C587.025757,45.334095 590.545837,48.178905 595.751648,50.006332 
	C619.570679,58.367668 628.294250,72.033051 629.636353,97.009613 
	C630.614807,115.218979 614.623657,132.985855 595.449707,136.294296 
	C587.265808,137.706421 587.571777,138.067215 586.162781,146.447342 
	C583.368469,163.067169 585.819946,180.081665 582.197266,196.541336 
	C580.594788,203.822479 582.171143,209.791611 585.241272,216.369156 
	C592.767090,232.492416 595.868225,249.918732 598.352173,267.434326 
	C598.861572,271.026611 598.865723,274.889923 601.112549,277.927399 
	C604.735962,282.825867 616.640076,283.383484 621.247742,279.106110 
	C622.303711,278.125793 622.794434,276.936127 622.735168,275.543091 
	C622.535889,270.854645 625.068298,267.540924 628.574402,265.101288 
	C632.384583,262.450073 635.261841,259.156464 637.454834,255.149429 
	C639.637268,251.161713 642.567932,247.777603 645.839111,244.641998 
	C648.492798,242.098312 648.010803,240.338608 644.595581,238.696945 
	C638.546387,235.789185 632.197937,233.928894 625.738586,232.302811 
	C622.337097,231.446533 619.032043,230.266403 616.022888,228.435806 
	C613.990662,227.199554 612.077759,225.665787 612.310730,222.961685 
	C612.524597,220.477921 614.531982,219.386703 616.540222,218.462280 
	C621.449463,216.202484 626.724670,215.383301 632.014648,214.737549 
	C639.188416,213.861847 642.518250,206.816177 639.653809,200.089005 
	C636.284363,192.175659 636.018250,183.719513 637.876465,175.297943 
	C638.413086,172.866013 640.261780,171.361023 642.492310,170.359314 
	C644.168701,169.606491 645.412598,168.332916 646.813293,167.179672 
	C653.650208,161.550339 652.804749,154.212769 652.152283,146.710587 
	C651.751465,142.100861 652.408569,137.684128 656.929810,134.917099 
	C659.452515,133.373245 658.966125,131.058273 658.421814,128.685074 
	C657.124329,123.027840 657.885193,121.785744 663.390625,121.939384 
	C668.465332,122.081009 671.041016,120.099586 671.954834,115.036057 
	C672.782654,110.449303 675.473389,107.067535 680.590210,106.708939 
	C683.518738,106.503700 684.634583,104.009056 686.550476,102.520676 
	C687.841248,101.517921 689.118958,99.946617 690.919495,101.137558 
	C692.772461,102.363121 692.080505,103.990822 691.033875,105.478882 
	C690.844299,105.748528 690.623535,106.049904 690.578857,106.359894 
	C689.956787,110.677330 693.721191,113.741524 693.651062,118.185768 
	C693.578979,122.753754 697.099365,124.949219 701.761841,125.206306 
	C705.208923,125.396362 705.813171,127.787575 704.834717,130.578293 
	C703.293701,134.973740 703.028748,138.757767 705.647461,143.289185 
	C707.693481,146.829651 707.329163,151.834885 704.768005,155.726196 
	C702.138245,159.721893 701.154846,163.198700 705.851257,166.399414 
	C707.415161,167.465256 708.036926,169.320435 708.241882,171.194061 
	C708.409302,172.723770 708.636719,174.226868 709.932739,175.214218 
	C713.468445,177.908005 714.476562,181.554459 714.308411,185.809250 
	C714.165222,189.432068 715.100891,191.993179 719.554871,189.848221 
	C721.012451,189.146286 722.531494,189.440948 723.940918,189.972488 
	C726.316345,190.868332 728.262085,190.163910 729.789001,188.397919 
	C732.151550,185.665298 735.069336,184.451355 738.625610,184.605515 
	C740.753418,184.697754 742.461914,183.709076 744.113647,182.514359 
	C745.418579,181.570496 746.824890,181.111511 748.181580,182.419266 
	C749.344543,183.540161 749.077759,184.754333 748.371948,186.050095 
	C746.187134,190.060913 748.140442,192.462601 751.819702,193.618347 
	C754.500977,194.460587 755.581299,196.079834 756.803040,198.514557 
	C758.775146,202.444595 760.813477,206.598953 764.986450,208.970078 
	C767.203003,210.229507 768.240234,212.276566 768.031433,214.839584 
	C767.745422,218.350327 769.597168,220.002274 772.794800,220.716202 
	C776.379639,221.516571 779.914795,222.545029 783.052734,224.529739 
	C787.801453,227.533173 787.706970,231.355621 782.810425,234.053864 
	C778.508362,236.424576 773.634827,236.953094 768.974060,238.171661 
	C763.822693,239.518494 763.433655,240.732147 766.895569,244.603546 
	C768.428894,246.318146 769.552612,248.086426 768.550964,250.439987 
	C767.376648,253.199066 765.219482,254.297867 762.233276,254.432266 
	C756.425842,254.693649 753.564148,256.977661 752.468872,261.789429 
	C752.164612,263.126129 751.921875,264.567078 752.825134,265.644745 
	C756.793213,270.378662 758.872559,276.393524 763.231995,280.850830 
	C765.576721,283.248077 768.744934,283.813843 771.757751,284.686310 
	C775.762878,285.846130 779.845093,286.853241 783.334412,289.230957 
	C787.611267,292.145416 787.555176,295.983612 783.270081,298.814728 
	C782.029358,299.634491 780.671143,300.456787 779.251465,300.798096 
	C761.068115,305.169464 743.679565,313.122742 724.539185,313.155884 
	C720.575500,313.162750 718.187195,314.780182 716.128296,318.136627 
	C709.844360,328.380554 702.790588,338.107452 694.227722,346.589905 
	C691.428894,349.362457 690.650208,352.657379 690.677551,356.110474 
	C690.829224,375.284515 684.414612,380.767120 662.436340,388.091309 
	C653.625183,391.027588 644.766357,394.609833 635.516418,396.455139 
	C631.248352,397.306580 630.131226,399.263763 630.940369,403.835693 
	C635.141663,427.576477 638.162659,451.485138 639.936951,475.543457 
	C640.168152,478.678528 639.243347,481.021484 636.762939,482.925598 
	C632.364746,486.302032 627.388611,488.657227 622.490662,491.141632 
	C620.667725,492.066284 618.920288,492.909485 618.085938,494.940155 
	C610.883057,512.470520 598.480469,526.069275 585.027283,538.924316 
	C580.799744,542.963867 581.081543,544.012573 585.675964,547.356873 
	C590.528503,550.889038 595.348267,554.466370 599.481873,558.859436 
	C601.548340,561.055542 603.391724,563.437927 604.564514,566.233093 
	C606.092041,569.873657 604.804810,571.849548 600.869873,571.405029 
	C597.425110,571.015869 594.072083,569.876099 590.648621,569.225098 
	C582.341064,567.645264 581.286194,568.272522 578.045898,576.641724 
	C574.638733,577.000000 571.277405,577.000000 567.458069,577.000000 
M588.582214,314.109985 
	C573.363647,323.354126 558.431763,333.110535 541.252380,338.627319 
	C536.552368,340.136627 530.447998,339.598846 527.456299,343.576141 
	C524.486267,347.524597 526.593384,353.266602 526.157166,358.203339 
	C524.060547,381.927704 523.110779,405.718140 522.398865,429.514282 
	C521.676025,453.675262 522.975281,477.823364 523.217590,501.979126 
	C523.276550,507.858368 524.562256,509.093048 530.338318,508.999237 
	C558.058350,508.549164 584.883301,503.650909 610.492798,492.753967 
	C623.130981,487.376373 623.145386,487.395508 621.527832,473.719910 
	C619.573181,457.193665 617.555603,440.674591 615.684998,424.138855 
	C615.259399,420.375885 613.495850,417.701111 610.635254,415.354431 
	C606.261841,411.766815 601.776245,408.225433 597.914001,404.122498 
	C586.429504,391.922363 581.832031,376.387177 577.676758,360.705811 
	C577.432007,359.781982 577.176941,358.688110 578.999390,357.954468 
	C584.434204,362.652893 590.723633,366.655945 596.747375,371.015045 
	C608.900940,379.809998 621.453796,378.007965 634.258301,373.158875 
	C636.996765,372.121796 638.191833,370.487213 636.628418,367.360809 
	C633.406494,360.917542 631.676086,353.990936 630.265320,346.928955 
	C629.461060,342.902893 630.283936,338.548553 628.231934,334.390747 
	C625.037109,339.323700 625.940369,344.963654 623.901917,350.509583 
	C622.927490,349.205475 622.249451,348.718964 622.216064,348.191711 
	C621.424500,335.673035 623.971008,324.013763 631.810303,313.967133 
	C634.407227,310.638977 634.263733,308.225067 630.273376,307.674255 
	C622.729675,306.632812 615.335754,306.802765 609.148499,312.502808 
	C602.517151,318.611908 596.149109,324.932922 590.687317,332.131744 
	C589.771484,333.338837 589.118958,335.259491 586.206604,334.056488 
	C592.234802,321.979309 597.937622,309.993103 611.983826,304.611664 
	C608.905640,301.409637 606.534302,302.166870 604.158264,303.745453 
	C599.164856,307.062927 594.184814,310.400574 588.582214,314.109985 
M458.493530,365.011261 
	C447.516937,374.874054 434.180115,378.719452 419.900238,378.904144 
	C414.993652,378.967590 414.756622,381.268677 414.485718,384.414581 
	C413.401428,397.007294 412.022125,409.594452 411.529083,422.214020 
	C410.560822,446.997375 409.784637,471.795593 410.240875,496.609100 
	C410.378662,504.102905 411.306091,505.335754 418.965698,506.660339 
	C431.901794,508.897400 444.885468,510.793030 457.980408,511.910980 
	C476.747894,513.513245 495.486267,514.594360 514.265381,511.882446 
	C518.218018,511.311646 519.889526,509.547913 519.840332,505.756042 
	C519.747314,498.594025 519.884888,491.421539 519.546082,484.271454 
	C517.651428,444.286652 519.584351,404.400604 522.350342,364.527344 
	C522.764832,358.552216 522.814270,352.550140 522.954407,346.558716 
	C522.991455,344.975464 522.503906,343.503906 520.577881,343.311523 
	C518.401245,343.094025 516.119202,342.979645 514.478210,344.711243 
	C513.057617,346.210297 514.585022,347.430237 515.290527,348.676178 
	C518.312683,354.013306 517.874268,357.547516 512.992004,361.268433 
	C510.281250,363.334320 509.558380,365.712799 510.292694,368.645325 
	C511.300934,372.671814 512.683899,376.602905 513.788269,380.607361 
	C514.966370,384.879303 513.350159,386.657806 508.958099,385.803345 
	C502.871155,384.619141 497.268616,382.013947 491.579437,379.648224 
	C484.512634,376.709625 479.118378,372.090942 475.842896,365.081848 
	C475.214996,363.738220 474.285797,362.521515 473.404755,361.312408 
	C468.562592,354.667175 467.292419,354.669281 462.014526,361.185760 
	C461.073639,362.347473 460.018494,363.416595 458.493530,365.011261 
M590.166199,104.648880 
	C588.660583,106.315720 589.539124,107.654335 590.709045,109.016960 
	C595.856750,115.012421 608.895447,117.613419 617.797058,114.386497 
	C625.866638,111.461197 625.453918,104.362534 625.865051,97.749832 
	C626.019287,95.269165 625.857849,92.748634 625.621216,90.267174 
	C624.069519,73.993904 616.215637,62.216843 601.055176,55.443264 
	C594.931213,52.707138 588.535828,50.959026 582.168701,49.021496 
	C580.159546,48.410099 577.500732,48.394863 576.755066,45.658417 
	C577.985657,44.001915 580.400208,45.575897 581.196472,43.586910 
	C581.238464,41.922440 580.274719,40.700127 579.338318,39.578342 
	C572.077637,30.879913 563.648132,23.404770 552.891418,19.652889 
	C518.044495,7.498485 487.541901,16.773499 459.981201,39.426392 
	C458.671661,40.502747 457.963226,42.662540 455.627441,42.121624 
	C455.171600,36.436687 454.399719,35.874363 448.616119,37.098907 
	C446.173615,37.616051 443.764618,38.297955 441.314728,38.772465 
	C414.533997,43.959518 403.184082,75.024483 410.935455,95.876167 
	C412.325684,99.615990 414.435089,102.341606 418.291290,103.320770 
	C421.203827,104.060333 424.762146,106.438576 427.003632,103.020210 
	C429.226562,99.630173 424.969055,98.380112 423.390411,96.365532 
	C420.842377,93.113930 417.913116,90.139023 416.746674,85.165176 
	C418.414368,85.663536 419.148285,85.690872 419.627258,86.054230 
	C429.857025,93.814529 440.145996,91.757744 450.569550,86.451935 
	C454.425446,84.489189 454.984924,82.356712 452.641571,78.583397 
	C450.683685,75.430779 448.128693,72.163094 448.670044,67.472656 
	C451.810455,68.471916 452.391418,71.324295 454.460205,72.691620 
	C463.427643,78.618561 473.222015,81.887589 483.894775,82.772987 
	C503.992096,84.440254 522.443054,78.923355 540.175293,70.096054 
	C542.243408,69.066490 544.152283,67.097610 547.177795,68.096809 
	C546.065125,72.715134 542.919373,75.748825 540.263916,79.066650 
	C536.814209,83.376938 536.971008,84.567581 541.660217,87.549255 
	C542.780029,88.261299 543.979980,88.857994 545.178894,89.433174 
	C561.646484,97.333641 578.775452,98.226959 596.385498,94.333855 
	C598.152161,93.943283 600.120300,92.746140 602.208740,94.684830 
	C599.196167,99.061470 594.502502,101.110001 590.166199,104.648880 
M406.886017,494.964294 
	C406.248505,458.985321 407.035980,423.039215 411.050995,387.264526 
	C413.067657,369.295746 414.007935,351.102325 419.353302,333.630249 
	C419.866547,331.952698 419.492645,330.547211 418.217010,329.602783 
	C408.718445,322.570557 401.909515,313.027283 394.326935,304.204437 
	C392.907654,302.553009 391.332397,301.833466 389.042999,302.798889 
	C386.298737,303.955994 383.371033,304.669342 380.558441,305.674652 
	C369.901245,309.483887 359.230774,313.259460 348.630859,317.222961 
	C346.155823,318.148407 342.921844,317.153503 340.635254,320.249268 
	C346.465546,324.054596 349.793732,329.960022 354.525177,334.227539 
	C356.330750,333.442139 355.104645,331.221100 357.700378,330.860046 
	C362.452698,338.500793 362.327484,348.107147 365.607941,356.578735 
	C368.476349,355.552429 369.802094,353.795227 370.843933,351.929199 
	C374.340912,345.665802 377.587494,339.232117 378.878052,332.121368 
	C379.726685,327.445465 383.059814,325.667938 386.482178,323.579224 
	C387.641693,325.301910 386.717316,326.517731 386.304535,327.701538 
	C374.816284,360.645599 366.694122,394.339539 363.708923,429.171661 
	C362.245453,446.247559 360.393738,463.295563 360.263885,480.468597 
	C360.236328,484.110168 361.531616,486.444733 364.695190,488.070129 
	C376.028168,493.892944 388.055145,497.620178 400.501312,500.113281 
	C404.048340,500.823792 406.404480,499.730591 406.886017,494.964294 
M453.618011,147.203445 
	C449.568237,148.153793 445.527039,149.142822 441.466034,150.042526 
	C438.094604,150.789444 436.406250,152.697342 436.151917,156.260590 
	C435.619080,163.725616 434.877594,171.177765 434.107422,178.623367 
	C432.840576,190.870972 433.788574,191.746353 446.124268,190.584885 
	C464.243866,188.878830 482.385254,189.272217 500.515381,190.494110 
	C514.114319,191.410629 527.683899,192.803070 541.339966,192.709549 
	C548.809692,192.658401 551.382996,191.236313 552.705383,184.280869 
	C554.192139,176.460236 554.730408,168.463242 555.834900,160.564453 
	C556.491150,155.871201 554.542664,153.429901 550.023376,152.368851 
	C539.652832,149.934082 529.265686,147.794754 518.644714,146.580597 
	C497.205322,144.129684 475.837708,143.986832 453.618011,147.203445 
M557.327881,293.128235 
	C547.953857,287.935364 538.059204,286.237427 527.450134,288.206543 
	C517.921875,289.975006 508.862488,293.384186 499.505280,295.730438 
	C480.044830,300.610077 461.239258,299.415253 443.267975,289.860962 
	C438.568909,287.362732 433.829529,284.932983 428.722046,283.273773 
	C423.727417,281.651215 418.916595,281.834564 414.105316,283.862671 
	C407.713593,286.557007 407.140778,289.683014 412.280060,294.462067 
	C413.616669,295.705048 415.092987,296.804108 416.549835,297.910431 
	C425.483032,304.694183 435.779755,309.207153 445.226013,315.124115 
	C451.126984,318.820404 456.480988,323.678192 464.285339,320.938965 
	C464.698944,320.793793 465.259155,321.076660 465.752899,321.147949 
	C471.696289,322.006226 478.008331,319.995453 483.631500,323.689880 
	C484.819275,324.470245 486.497070,323.338196 487.846466,322.646484 
	C498.591339,317.138855 510.176056,314.017944 521.726440,310.827911 
	C533.275146,307.638336 544.870728,304.618317 556.418579,301.425598 
	C558.418640,300.872589 561.028015,300.614716 561.408203,297.945892 
	C561.748291,295.558594 559.500305,294.683258 557.327881,293.128235 
M655.165833,329.133453 
	C654.868469,326.129974 655.132080,323.162109 655.539673,320.176910 
	C656.808105,310.884979 656.770569,310.878906 647.250000,309.415710 
	C646.756653,309.339905 646.223572,309.396088 645.766357,309.231476 
	C640.557373,307.355682 638.100769,309.922150 636.554993,314.578400 
	C629.728699,335.140808 631.757629,354.545532 643.899963,372.681885 
	C646.973389,377.272491 652.865173,378.849243 657.356140,375.523468 
	C665.385986,369.576996 667.681580,366.576416 664.766968,360.804352 
	C659.861694,351.089874 656.102722,341.001129 655.165833,329.133453 
M347.849945,364.906494 
	C347.808960,361.743622 348.101166,358.534332 347.668121,355.426086 
	C345.978577,343.299164 343.251434,331.502686 335.287231,321.653503 
	C333.655853,319.636017 331.809845,318.003571 328.975250,318.299347 
	C325.168610,318.696472 321.325836,318.927185 317.576385,319.638977 
	C314.285431,320.263733 312.463013,321.754272 314.973206,325.507172 
	C320.351868,333.548462 322.683105,342.730286 324.430420,352.130524 
	C325.258881,356.587433 324.311218,361.393555 325.895935,365.443176 
	C327.259125,368.926666 327.871948,371.533081 326.447021,375.150726 
	C324.865265,379.166626 330.320709,385.071808 334.321991,384.328644 
	C340.497223,383.181702 344.721344,374.136292 341.458099,368.923920 
	C343.142334,367.090881 346.740295,368.931976 347.849945,364.906494 
M490.304230,120.601456 
	C489.861267,125.393394 489.685333,130.229614 488.899994,134.964783 
	C488.119904,139.668320 490.158783,141.480453 494.454224,141.651016 
	C499.427063,141.848511 504.412750,141.544678 509.366577,142.436722 
	C511.984802,142.908173 514.109985,141.676102 514.620728,139.000595 
	C517.083557,126.098679 517.984314,113.015732 518.805786,99.933319 
	C518.979675,97.163986 517.292053,95.870110 514.674072,96.404945 
	C508.905670,97.583420 503.094208,97.237679 497.289307,97.198280 
	C494.367767,97.178459 492.596710,98.161842 492.309448,101.388222 
	C491.765564,107.495842 491.007751,113.584419 490.304230,120.601456 
M465.306580,116.562248 
	C464.886505,123.359726 464.466248,130.157181 464.046448,136.954681 
	C463.841919,140.266113 465.279053,141.943451 468.716064,141.819901 
	C472.205231,141.694504 475.698975,141.624863 479.190063,141.645844 
	C483.297729,141.670532 485.508942,139.550095 485.573883,135.614105 
	C485.763580,124.118362 487.699097,112.791000 488.653229,101.371185 
	C488.883972,98.609627 487.887695,96.929146 485.124023,96.272301 
	C481.246033,95.350616 477.405975,94.267899 473.524200,93.363594 
	C469.839111,92.505135 467.772858,94.054459 467.354553,97.820587 
	C466.694824,103.760574 466.021484,109.699059 465.306580,116.562248 
M521.456970,112.849075 
	C520.535950,121.091682 519.752869,129.353119 518.631592,137.568390 
	C518.123779,141.288849 519.155212,143.264023 522.996277,143.794052 
	C527.602661,144.429626 532.196411,145.203964 536.755188,146.119781 
	C539.668213,146.704971 541.276306,145.718842 541.706177,142.839554 
	C543.030212,133.970978 544.282471,125.091507 545.645752,116.229073 
	C546.105896,113.238014 545.173950,111.014313 542.591614,109.481354 
	C537.719482,106.589165 533.183411,103.231064 528.807800,99.642136 
	C525.851379,97.217262 523.847595,98.118172 523.118652,101.642014 
	C522.415039,105.043213 522.086792,108.522057 521.456970,112.849075 
M675.547302,199.178406 
	C672.801147,196.275101 670.405518,196.732239 668.168335,199.852966 
	C667.074768,201.378479 665.615479,202.877380 663.619995,202.394653 
	C658.666565,201.196365 657.847290,204.672607 657.342896,207.980881 
	C656.896362,210.909317 657.117615,213.957352 657.214233,216.947083 
	C657.411926,223.063934 660.154358,225.915588 666.247559,226.800125 
	C676.159119,228.238968 684.491577,224.587601 692.221863,218.918808 
	C693.923523,217.670959 694.715698,215.948700 695.038147,213.840240 
	C695.588867,210.239853 691.473022,200.793045 688.374939,199.109131 
	C685.820251,197.720490 684.546875,198.876083 684.396301,201.451981 
	C684.241028,204.108917 684.401001,206.782867 684.302002,209.444885 
	C684.180420,212.715607 684.582397,217.238083 680.154175,217.098206 
	C675.787048,216.960281 676.426880,212.270111 676.282654,209.110443 
	C676.141235,206.012924 677.555969,202.867889 675.547302,199.178406 
M448.693329,117.089828 
	C448.216125,124.035599 447.696442,130.978836 447.280487,137.928268 
	C447.087219,141.157410 447.492737,143.969574 451.849152,143.981705 
	C457.555176,143.997589 460.241608,142.343979 460.557770,138.165894 
	C460.845398,134.364700 460.936554,130.547424 461.274353,126.751488 
	C462.009064,118.495987 462.913696,110.255150 463.594482,101.995590 
	C463.771088,99.852737 464.478455,96.863327 460.423615,97.526512 
	C452.814178,98.771088 449.909332,101.979080 449.341034,109.730133 
	C449.183350,111.880928 449.002289,114.030006 448.693329,117.089828 
M477.542969,256.752533 
	C482.542694,256.386139 487.370300,258.451782 492.396515,257.784058 
	C496.218750,257.276276 497.292389,255.321365 494.894135,252.577133 
	C491.186523,248.334625 487.609070,243.804993 483.204437,240.393982 
	C478.843628,237.016876 473.536407,233.497574 467.669189,236.115326 
	C462.410492,238.461609 459.273651,243.569031 454.408173,248.459320 
	C457.959991,248.519180 460.014954,249.112885 461.105896,250.841537 
	C464.840637,256.759460 470.279724,257.854034 477.542969,256.752533 
M769.141907,300.659607 
	C771.220886,300.074524 773.353882,299.631927 775.365601,298.869446 
	C778.065125,297.846283 782.220093,297.607941 782.115112,294.024261 
	C782.006165,290.308380 777.721191,290.071442 774.897766,288.943848 
	C771.480835,287.579163 768.892395,287.810303 769.309875,292.589355 
	C769.524536,295.046783 768.246399,297.024597 766.112671,297.753174 
	C761.883606,299.197174 757.522888,301.036407 753.165833,301.180878 
	C739.045593,301.649048 725.055359,303.755981 710.869202,303.636200 
	C693.739258,303.491577 676.638550,303.578827 659.581604,301.658997 
	C653.825378,301.011078 648.009155,300.895752 642.220398,300.537018 
	C642.220825,301.140778 642.221252,301.744537 642.221619,302.348297 
	C684.278625,309.023926 726.309692,308.829590 769.141907,300.659607 
M622.512756,228.018585 
	C626.509705,229.163727 630.460022,230.517441 634.510864,231.421295 
	C669.544678,239.238342 705.045166,240.354294 740.731201,238.626556 
	C742.806641,238.526077 744.903625,238.290665 746.823547,236.354385 
	C742.949402,234.557404 739.511169,236.186920 736.135315,236.246048 
	C713.657288,236.639832 691.195068,236.366852 668.812683,234.174210 
	C658.088440,233.123611 647.242188,232.558655 636.893188,229.008575 
	C629.650391,226.523972 629.000244,225.015259 633.038269,218.760086 
	C629.103760,217.369324 625.490601,218.554062 621.921631,219.706528 
	C619.722290,220.416748 616.854614,221.147522 616.757690,223.749390 
	C616.655029,226.507416 619.644897,226.967361 622.512756,228.018585 
M560.093079,124.371361 
	C560.042053,120.625687 554.858154,115.790581 551.378296,116.196182 
	C549.773865,116.383171 548.962402,117.439049 548.768005,118.809746 
	C547.577393,127.204666 546.264587,135.591660 545.436462,144.024887 
	C544.978516,148.688202 549.196838,148.892609 552.316406,149.656342 
	C555.694458,150.483337 556.585999,148.126404 557.132629,145.426102 
	C558.488586,138.727570 559.622681,132.002762 560.093079,124.371361 
M268.501251,153.954285 
	C266.047241,155.079193 263.333374,156.264389 262.601593,158.999176 
	C260.293121,167.626099 260.935883,176.268799 262.606689,185.233612 
	C268.298248,181.577759 269.182648,178.958389 268.633636,169.742752 
	C268.455017,166.744476 266.858643,162.965057 270.810944,161.372055 
	C274.618164,159.837524 274.983582,164.245270 276.995605,165.861191 
	C277.116028,165.957901 277.309479,165.963608 278.165436,166.221542 
	C279.861420,162.166351 282.366302,158.395905 284.900482,154.642273 
	C285.740662,153.397766 286.316833,151.836136 285.192078,150.451065 
	C284.095459,149.100632 282.483002,149.252014 281.026703,149.710617 
	C277.061859,150.959229 273.130951,152.315536 268.501251,153.954285 
M685.934937,330.358002 
	C687.030273,328.899353 688.387756,327.566254 689.160461,325.953094 
	C690.369812,323.428314 690.985413,320.360046 687.541382,319.295105 
	C681.940613,317.563293 676.097351,316.538788 670.903381,320.606140 
	C666.176086,324.307983 668.302795,328.976013 669.407288,333.440460 
	C669.725891,334.728394 669.993469,336.053467 670.515564,337.261627 
	C671.832397,340.308777 673.959412,341.405762 676.723999,339.034363 
	C679.741272,336.446289 682.543518,333.607544 685.934937,330.358002 
M420.649628,339.360016 
	C418.864349,349.794067 416.455994,360.167297 417.504150,370.962128 
	C420.358734,365.049500 424.498962,359.704803 423.241333,352.529755 
	C422.328033,347.319275 424.490448,344.086456 429.621002,342.232758 
	C431.681885,341.488159 433.675446,340.705078 435.183929,339.043518 
	C436.456909,337.641266 436.359253,336.424042 434.729767,335.329651 
	C430.886932,332.748840 423.242218,334.556244 420.649628,339.360016 
M350.297699,351.496552 
	C350.661713,355.115540 351.064850,358.731232 351.372009,362.355042 
	C351.509674,363.979187 351.939484,365.308990 353.712982,365.711975 
	C357.675049,366.612305 359.824036,363.862488 362.054108,361.423767 
	C363.022217,360.365051 364.505341,358.855286 363.026855,357.561249 
	C357.911285,353.083862 357.037964,346.195953 353.238678,341.011993 
	C351.368256,338.459869 350.249512,335.223724 346.395660,333.256287 
	C346.773376,339.756714 349.646576,344.962189 350.297699,351.496552 
M538.142700,240.669861 
	C539.023621,239.482468 540.184692,238.412079 540.737671,237.087753 
	C543.353271,230.824051 542.173279,225.122803 537.840210,219.983582 
	C534.652405,216.202789 530.642090,214.889175 525.867065,216.021912 
	C519.886475,217.440659 516.426453,221.403046 515.363586,227.299393 
	C514.275269,233.336899 515.873962,238.725357 521.263184,242.033768 
	C526.687195,245.363480 532.312439,244.913788 538.142700,240.669861 
M439.312012,133.840240 
	C439.194702,137.577866 438.635315,141.352783 439.792419,145.135956 
	C442.999878,144.433105 443.320953,142.055527 443.535858,140.046326 
	C444.685272,129.298904 445.682220,118.534439 446.625183,107.766518 
	C446.758423,106.244667 447.324646,104.047852 445.048370,103.593941 
	C442.516327,103.089020 442.250183,105.426521 441.697906,107.098244 
	C441.390411,108.029114 441.466217,109.079155 441.248474,110.048340 
	C439.555389,117.584717 440.886353,125.363541 439.312012,133.840240 
M610.863953,285.298462 
	C605.320862,287.380554 604.176819,289.028168 606.359985,291.785187 
	C609.505920,295.758057 626.782715,300.995575 632.282166,299.424438 
	C630.447144,295.661713 626.318237,296.201355 623.522095,294.543457 
	C621.357483,293.259979 618.461487,292.342285 618.730835,289.481293 
	C619.370728,282.684479 615.531738,284.057251 610.863953,285.298462 
M754.728210,236.857773 
	C758.522888,236.417221 762.347290,236.147659 766.104675,235.492966 
	C770.829041,234.669739 775.702759,234.321640 780.000549,231.807739 
	C783.027832,230.036942 783.401428,228.152466 780.127502,226.413208 
	C776.952271,224.726395 773.590515,223.490952 768.984558,224.056671 
	C773.417725,228.644867 770.703003,230.645920 766.970398,232.685669 
	C764.090027,234.259705 761.374573,235.298416 757.996216,234.705200 
	C755.339661,234.238724 755.290100,234.520966 754.728210,236.857773 
M414.615631,517.750122 
	C418.164337,518.153625 421.770569,519.914001 425.942047,517.211914 
	C413.912811,513.170105 402.235779,510.710999 390.461243,508.586548 
	C397.500458,513.713013 405.379089,516.374023 414.615631,517.750122 
M543.569702,521.619995 
	C551.096619,521.071533 558.495544,519.929321 566.455688,516.965271 
	C561.484009,516.610657 540.274658,519.638184 537.955933,520.835876 
	C539.445557,521.855408 541.138489,521.535889 543.569702,521.619995 
M294.593170,186.902161 
	C290.454407,189.825699 289.798828,195.119217 292.983582,199.898804 
	C296.776459,197.344315 297.626251,192.482117 294.593170,186.902161 
M665.109070,162.482498 
	C666.553040,162.772171 668.031006,163.359329 669.623901,161.664963 
	C669.307129,158.752396 668.410278,156.073334 664.663330,155.685486 
	C662.603760,155.472290 660.141357,155.989075 659.757812,158.144043 
	C659.197266,161.293884 662.360413,161.381165 665.109070,162.482498 
M648.286377,208.067749 
	C649.352356,204.658966 647.425415,203.412582 644.625061,202.661774 
	C642.330322,207.544388 642.876709,208.506561 648.286377,208.067749 
M677.850586,132.773468 
	C681.202759,135.058807 682.361267,132.463150 684.354614,129.834778 
	C681.596680,129.352173 679.461975,128.978622 677.534180,128.641281 
	C676.390747,130.166565 676.993835,131.213715 677.850586,132.773468 
M755.465027,245.123825 
	C754.605042,246.225250 753.087524,247.082962 754.047852,248.953918 
	C756.307617,249.460938 757.642822,248.180893 758.139038,246.365280 
	C758.525513,244.951385 757.456665,244.289032 755.465027,245.123825 
z"/>
<path fill="#000000" opacity="1.000000" stroke="none" 
	d="
M512.709229,462.467651 
	C510.201843,466.166229 507.213806,467.718933 503.116180,466.287109 
	C499.615112,465.063812 497.691711,462.539825 497.322235,458.917938 
	C496.960602,455.373108 498.756042,452.828766 501.668945,451.127533 
	C504.703827,449.355103 507.755920,449.685028 510.495209,451.865906 
	C513.963135,454.626801 514.505249,458.149170 512.709229,462.467651 
z"/>
<path fill="#000000" opacity="1.000000" stroke="none" 
	d="
M501.047760,411.113525 
	C498.049744,407.518707 497.651733,403.873749 499.868530,400.246246 
	C501.692627,397.261414 504.723724,396.305176 508.093811,396.846558 
	C511.578583,397.406311 513.590088,399.718842 514.544189,403.002258 
	C515.606873,406.659271 514.177002,409.728760 511.446991,411.823151 
	C508.196899,414.316528 504.610931,413.846313 501.047760,411.113525 
z"/>
<path fill="#000000" opacity="1.000000" stroke="none" 
	d="
M422.998718,445.518127 
	C428.879425,446.963562 430.464264,449.091827 430.009308,454.991455 
	C428.352509,454.076141 426.663849,453.450256 425.383728,452.349365 
	C424.108734,451.252960 423.203278,449.645691 421.236115,450.818207 
	C419.438507,451.889740 419.068787,453.677917 419.262421,455.595490 
	C419.409821,457.055603 419.701141,458.501160 419.935120,459.995941 
	C416.225616,459.164154 414.832703,457.489349 414.910950,453.659912 
	C415.012848,448.671326 417.902283,446.189056 422.998718,445.518127 
z"/>
<path fill="#000000" opacity="1.000000" stroke="none" 
	d="
M424.076233,408.227356 
	C421.158569,407.427155 419.453888,405.669434 418.500092,403.229431 
	C417.065582,399.559753 417.629974,396.198792 421.037659,393.988892 
	C424.965790,391.441437 427.760559,393.702484 430.605011,396.757294 
	C424.695892,396.896057 423.957794,398.128540 424.947266,403.772095 
	C425.170532,405.045502 428.565796,407.369141 424.076233,408.227356 
z"/>
<path fill="#000000" opacity="1.000000" stroke="none" 
	d="
M536.455933,238.355621 
	C530.924683,242.864349 525.876160,242.985123 521.350708,239.001801 
	C517.450745,235.569016 516.568176,227.904068 519.548340,223.348236 
	C522.300476,219.140961 527.939026,217.426529 532.265198,219.481537 
	C537.604614,222.017838 540.579407,228.557938 538.788330,234.123169 
	C538.340332,235.515076 537.419678,236.754868 536.455933,238.355621 
M527.079529,226.824402 
	C526.166321,227.527679 525.079407,228.091095 524.376831,228.963913 
	C522.999207,230.675385 522.864868,232.638824 524.063171,234.542450 
	C525.251038,236.429504 527.048584,237.215225 529.208679,236.776154 
	C531.474731,236.315536 532.456604,234.579849 532.769470,232.461670 
	C533.334351,228.636871 531.387634,226.898102 527.079529,226.824402 
z"/>
</svg>